<?xml version="1.0" encoding="utf-8"?>
<!-- Generator: Adobe Illustrator 22.0.1, SVG Export Plug-In . SVG Version: 6.00 Build 0)  -->
<svg version="1.1" id="Capa_1" xmlns="http://www.w3.org/2000/svg" xmlns:xlink="http://www.w3.org/1999/xlink" x="0px" y="0px"
	 viewBox="0 0 124 123.9" enable-background="new 0 0 124 123.9" xml:space="preserve">
<g>
	<rect fill="#2E3191" width="124" height="123.9"/>
	<rect x="4.4" y="4.2" fill="#EC1C24" width="115.4" height="115.4"/>
	<path fill="#FFFFFF" d="M13,64.5h2.5l1.9,5.2l1.9-5.2h2.5l-3.3,8.3h-2.1L13,64.5z"/>
	<path fill="#FFFFFF" d="M23.4,64.4h2.2l3.5,8.3h-2.4l-0.6-1.5h-3.2l-0.6,1.5h-2.4L23.4,64.4z M25.4,69.5l-0.9-2.3l-0.9,2.3H25.4z"
		/>
	<path fill="#FFFFFF" d="M29.8,64.5h3.9c0.6,0,1.2,0.1,1.6,0.2c0.4,0.2,0.8,0.4,1.1,0.7c0.5,0.5,0.7,1.1,0.7,1.9v0
		c0,0.6-0.2,1.2-0.5,1.6c-0.3,0.4-0.7,0.7-1.2,1l2,2.9h-2.6l-1.7-2.5h0h-1v2.5h-2.3V64.5z M33.6,68.4c0.4,0,0.7-0.1,0.9-0.3
		c0.2-0.2,0.3-0.4,0.3-0.7v0c0-0.3-0.1-0.6-0.3-0.7c-0.2-0.2-0.5-0.2-0.9-0.2h-1.5v2H33.6z"/>
	<path fill="#FFFFFF" d="M42.1,72.9c-0.6,0-1.2-0.1-1.8-0.3c-0.5-0.2-1-0.5-1.4-0.9c-0.4-0.4-0.7-0.8-0.9-1.3
		c-0.2-0.5-0.3-1.1-0.3-1.7v0c0-0.6,0.1-1.2,0.3-1.7c0.2-0.5,0.5-1,0.9-1.4c0.4-0.4,0.9-0.7,1.4-0.9c0.5-0.2,1.1-0.3,1.8-0.3
		c0.7,0,1.4,0.1,1.9,0.3c0.5,0.2,1,0.5,1.5,0.9l-1.3,1.6c-0.3-0.2-0.6-0.4-0.9-0.6c-0.3-0.1-0.7-0.2-1.1-0.2c-0.3,0-0.6,0.1-0.8,0.2
		c-0.3,0.1-0.5,0.3-0.7,0.5c-0.2,0.2-0.3,0.4-0.4,0.7C40,68,40,68.3,40,68.6v0c0,0.3,0.1,0.6,0.2,0.9c0.1,0.3,0.3,0.5,0.5,0.7
		c0.2,0.2,0.4,0.4,0.7,0.5c0.3,0.1,0.6,0.2,0.9,0.2c0.5,0,1-0.1,1.3-0.3v-1h-1.6v-1.7h3.8v3.7c-0.4,0.4-1,0.7-1.6,0.9
		C43.6,72.8,42.9,72.9,42.1,72.9z"/>
	<path fill="#FFFFFF" d="M49.5,64.4h2.2l3.5,8.3h-2.4l-0.6-1.5H49l-0.6,1.5H46L49.5,64.4z M51.5,69.5l-0.9-2.3l-0.9,2.3H51.5z"/>
	<path fill="#FFFFFF" d="M58.9,72.9c-0.7,0-1.4-0.1-2.1-0.3c-0.7-0.2-1.2-0.6-1.8-1l1.3-1.5c0.8,0.7,1.7,1,2.7,1
		c0.3,0,0.5,0,0.7-0.1c0.2-0.1,0.2-0.2,0.2-0.4v0c0-0.1,0-0.2-0.1-0.2c0-0.1-0.1-0.1-0.2-0.2c-0.1-0.1-0.2-0.1-0.4-0.2
		c-0.2-0.1-0.4-0.1-0.7-0.2c-0.4-0.1-0.8-0.2-1.2-0.3c-0.4-0.1-0.7-0.3-1-0.5c-0.3-0.2-0.5-0.4-0.7-0.7c-0.2-0.3-0.2-0.6-0.2-1.1v0
		c0-0.4,0.1-0.7,0.2-1.1c0.1-0.3,0.4-0.6,0.6-0.8c0.3-0.2,0.6-0.4,1-0.5c0.4-0.1,0.8-0.2,1.3-0.2c0.7,0,1.3,0.1,1.9,0.3
		c0.6,0.2,1.1,0.5,1.5,0.8l-1.1,1.6c-0.4-0.3-0.8-0.5-1.2-0.6c-0.4-0.1-0.8-0.2-1.1-0.2c-0.3,0-0.5,0.1-0.6,0.2
		c-0.1,0.1-0.2,0.2-0.2,0.4v0c0,0.1,0,0.2,0.1,0.2c0,0.1,0.1,0.1,0.2,0.2c0.1,0.1,0.3,0.1,0.4,0.2c0.2,0.1,0.4,0.1,0.7,0.2
		c0.5,0.1,0.9,0.2,1.3,0.4c0.4,0.1,0.7,0.3,1,0.5c0.3,0.2,0.5,0.4,0.6,0.7c0.1,0.3,0.2,0.6,0.2,1v0c0,0.4-0.1,0.8-0.2,1.1
		c-0.2,0.3-0.4,0.6-0.7,0.8c-0.3,0.2-0.6,0.4-1,0.5C59.8,72.8,59.4,72.9,58.9,72.9z"/>
	<path fill="#FFFFFF" d="M65.9,64.5h2.3v6.2h4v2h-6.3V64.5z"/>
	<path fill="#FFFFFF" d="M72.8,64.5h2.3v6.2h4v2h-6.3V64.5z"/>
	<path fill="#FFFFFF" d="M79.7,64.5h6.6v1.9H82v1.2h3.9v1.8H82v1.3h4.4v1.9h-6.7V64.5z"/>
	<path fill="#FFFFFF" d="M87.2,64.5h3.9c0.6,0,1.2,0.1,1.6,0.2c0.4,0.2,0.8,0.4,1.1,0.7c0.5,0.5,0.7,1.1,0.7,1.9v0
		c0,0.6-0.2,1.2-0.5,1.6c-0.3,0.4-0.7,0.7-1.2,1l2,2.9h-2.6l-1.7-2.5h0h-1v2.5h-2.3V64.5z M91,68.4c0.4,0,0.7-0.1,0.9-0.3
		c0.2-0.2,0.3-0.4,0.3-0.7v0c0-0.3-0.1-0.6-0.3-0.7c-0.2-0.2-0.5-0.2-0.9-0.2h-1.5v2H91z"/>
	<path fill="#FFFFFF" d="M98.2,64.4h2.2l3.5,8.3h-2.4l-0.6-1.5h-3.2l-0.6,1.5h-2.4L98.2,64.4z M100.2,69.5l-0.9-2.3l-0.9,2.3H100.2z
		"/>
	<path fill="#FFFFFF" d="M107.6,72.9c-0.7,0-1.4-0.1-2.1-0.3c-0.7-0.2-1.2-0.6-1.8-1L105,70c0.8,0.7,1.7,1,2.7,1
		c0.3,0,0.5,0,0.7-0.1c0.2-0.1,0.2-0.2,0.2-0.4v0c0-0.1,0-0.2-0.1-0.2c0-0.1-0.1-0.1-0.2-0.2c-0.1-0.1-0.2-0.1-0.4-0.2
		c-0.2-0.1-0.4-0.1-0.7-0.2c-0.4-0.1-0.8-0.2-1.2-0.3c-0.4-0.1-0.7-0.3-1-0.5c-0.3-0.2-0.5-0.4-0.7-0.7c-0.2-0.3-0.2-0.6-0.2-1.1v0
		c0-0.4,0.1-0.7,0.2-1.1s0.4-0.6,0.6-0.8c0.3-0.2,0.6-0.4,1-0.5c0.4-0.1,0.8-0.2,1.3-0.2c0.7,0,1.3,0.1,1.9,0.3
		c0.6,0.2,1.1,0.5,1.5,0.8l-1.1,1.6c-0.4-0.3-0.8-0.5-1.2-0.6c-0.4-0.1-0.8-0.2-1.1-0.2c-0.3,0-0.5,0.1-0.6,0.2
		c-0.1,0.1-0.2,0.2-0.2,0.4v0c0,0.1,0,0.2,0.1,0.2c0,0.1,0.1,0.1,0.2,0.2c0.1,0.1,0.2,0.1,0.4,0.2c0.2,0.1,0.4,0.1,0.7,0.2
		c0.5,0.1,0.9,0.2,1.3,0.4c0.4,0.1,0.7,0.3,1,0.5c0.3,0.2,0.5,0.4,0.6,0.7c0.1,0.3,0.2,0.6,0.2,1v0c0,0.4-0.1,0.8-0.2,1.1
		c-0.2,0.3-0.4,0.6-0.7,0.8c-0.3,0.2-0.6,0.4-1,0.5C108.5,72.8,108.1,72.9,107.6,72.9z"/>
	<path fill="#FFFFFF" d="M15,58.6h-1.8v-3.8h2.5l0.4-2.6h-2.2v-3.8h2.8l0.5-3h3.4l-0.5,3h3l0.5-3H27l-0.5,3h1.8v3.8h-2.5l-0.4,2.6
		h2.2v3.8h-2.8l-0.6,3.2h-3.4l0.6-3.2h-3l-0.5,3.2h-3.4L15,58.6z M22.1,54.9l0.5-2.8h-3.1l-0.5,2.8H22.1z"/>
	<path fill="#FFFFFF" d="M29.8,45.3h4.8l3.9,6.4l3.9-6.4h4.8v16.4h-4.5v-9.4l-4.2,6.4h-0.1l-4.2-6.4v9.4h-4.5V45.3z"/>
	<path fill="#FFFFFF" d="M49.5,45.3h13.2v3.9H54v2.5h7.9v3.6H54v2.6h8.8v3.9H49.5V45.3z"/>
	<path fill="#FFFFFF" d="M68.9,62c-0.7,0-1.4-0.1-1.9-0.2c-0.6-0.1-1.1-0.3-1.6-0.6c-0.5-0.2-0.9-0.5-1.3-0.9
		c-0.4-0.3-0.7-0.7-1-1.1l2.9-2.8c0.4,0.5,0.8,0.9,1.2,1.1c0.4,0.3,0.8,0.4,1.3,0.4c0.6,0,1-0.2,1.4-0.6c0.3-0.4,0.5-1,0.5-1.7V45.3
		H75v10.4c0,1-0.1,1.9-0.4,2.7c-0.3,0.8-0.7,1.4-1.2,1.9c-0.5,0.5-1.2,1-2,1.2C70.7,61.9,69.8,62,68.9,62z"/>
	<path fill="#FFFFFF" d="M85.3,62.1c-1.3,0-2.4-0.2-3.5-0.7c-1.1-0.4-2-1.1-2.8-1.8c-0.8-0.8-1.4-1.7-1.8-2.7
		c-0.4-1-0.7-2.1-0.7-3.3v0c0-1.2,0.2-2.3,0.7-3.3c0.4-1,1.1-1.9,1.9-2.7c0.8-0.8,1.7-1.4,2.8-1.8c1.1-0.4,2.3-0.7,3.5-0.7
		c1.3,0,2.4,0.2,3.5,0.7c1.1,0.4,2,1.1,2.8,1.8c0.8,0.8,1.4,1.7,1.8,2.7c0.4,1,0.7,2.1,0.7,3.3v0c0,1.2-0.2,2.3-0.7,3.3
		c-0.4,1-1.1,1.9-1.9,2.7c-0.8,0.8-1.7,1.4-2.8,1.8C87.8,61.8,86.6,62.1,85.3,62.1z M85.3,57.9c0.6,0,1.2-0.1,1.7-0.4
		c0.5-0.2,1-0.5,1.3-0.9c0.4-0.4,0.6-0.9,0.8-1.4c0.2-0.5,0.3-1.1,0.3-1.7v0c0-0.6-0.1-1.2-0.3-1.7c-0.2-0.5-0.5-1-0.9-1.4
		c-0.4-0.4-0.8-0.7-1.3-1c-0.5-0.2-1.1-0.4-1.7-0.4c-0.6,0-1.2,0.1-1.7,0.4c-0.5,0.2-0.9,0.6-1.3,1c-0.4,0.4-0.7,0.9-0.8,1.4
		c-0.2,0.5-0.3,1.1-0.3,1.7v0c0,0.6,0.1,1.2,0.3,1.7c0.2,0.5,0.5,1,0.9,1.4c0.4,0.4,0.8,0.7,1.3,1C84.1,57.8,84.7,57.9,85.3,57.9z"
		/>
	<path fill="#FFFFFF" d="M95.9,45.3h7.8c1.3,0,2.3,0.2,3.2,0.5c0.9,0.3,1.6,0.7,2.1,1.3c1,0.9,1.5,2.2,1.5,3.8v0
		c0,1.3-0.3,2.3-0.9,3.1c-0.6,0.8-1.4,1.5-2.5,1.9l3.9,5.7h-5.3l-3.3-5h0h-1.9v5h-4.5V45.3z M103.4,53.2c0.8,0,1.4-0.2,1.8-0.5
		c0.4-0.4,0.6-0.8,0.6-1.4v0c0-0.7-0.2-1.1-0.7-1.5c-0.4-0.3-1-0.5-1.8-0.5h-3v3.9H103.4z"/>
	<rect x="13.2" y="75.9" fill="#FFDD00" width="97.7" height="2.6"/>
</g>
</svg>
