<?xml version="1.0" encoding="utf-8"?>
<!-- Generator: Adobe Illustrator 22.0.1, SVG Export Plug-In . SVG Version: 6.00 Build 0)  -->
<svg version="1.1" id="Capa_1" xmlns="http://www.w3.org/2000/svg" xmlns:xlink="http://www.w3.org/1999/xlink" x="0px" y="0px"
	 viewBox="0 0 240.8 131.7" enable-background="new 0 0 240.8 131.7" xml:space="preserve">
<g>
	<path fill="#FFFFFF" d="M11.5,2c-0.9-0.4-1.8-0.5-2.7-0.5c-1.3,0-2.5,0.3-3.5,0.9C4.2,3,3.4,3.9,2.8,4.9S1.8,7.2,1.8,8.4
		s0.3,2.4,0.9,3.5c0.6,1.1,1.5,1.9,2.5,2.5c1.1,0.6,2.2,0.9,3.5,0.9c0.9,0,1.8-0.2,2.7-0.5c0.9-0.4,1.6-0.9,2.3-1.5l1,1.1
		c-0.8,0.8-1.8,1.4-2.8,1.8c-1.1,0.4-2.1,0.7-3.3,0.7c-1.6,0-3-0.4-4.3-1.1C3.1,15,2.1,14,1.3,12.7C0.5,11.4,0.2,10,0.2,8.4
		c0-1.5,0.4-2.9,1.2-4.2c0.8-1.3,1.8-2.3,3.1-3C5.8,0.4,7.2,0,8.8,0c1.1,0,2.2,0.2,3.3,0.6c1,0.4,2,1,2.8,1.7l-1,1.1
		C13.2,2.9,12.4,2.4,11.5,2z"/>
	<path fill="#FFFFFF" d="M29.4,1.2c1.3,0.8,2.4,1.8,3.1,3c0.8,1.3,1.2,2.7,1.2,4.2c0,1.5-0.4,3-1.2,4.2c-0.8,1.3-1.8,2.3-3.1,3.1
		c-1.3,0.8-2.8,1.1-4.4,1.1s-3-0.4-4.4-1.1c-1.3-0.8-2.4-1.8-3.1-3.1c-0.8-1.3-1.2-2.7-1.2-4.2c0-1.5,0.4-2.9,1.2-4.2
		c0.8-1.3,1.8-2.3,3.1-3C22,0.4,23.5,0,25,0S28.1,0.4,29.4,1.2z M21.5,2.4C20.5,3,19.6,3.9,19,4.9C18.4,6,18,7.2,18,8.4
		s0.3,2.4,0.9,3.5c0.6,1.1,1.5,1.9,2.6,2.6c1.1,0.6,2.2,0.9,3.5,0.9c1.2,0,2.4-0.3,3.5-0.9s1.9-1.5,2.6-2.6c0.6-1.1,0.9-2.2,0.9-3.5
		S31.7,6,31.1,4.9c-0.6-1.1-1.5-1.9-2.6-2.5s-2.2-0.9-3.5-0.9C23.8,1.5,22.6,1.8,21.5,2.4z"/>
	<path fill="#FFFFFF" d="M49.3,0.2H51v16.6h-1.7l-10.3-14v14h-1.6V0.2H39l10.3,14.1V0.2z"/>
	<path fill="#FFFFFF" d="M67.6,1.2c1.3,0.8,2.4,1.8,3.1,3c0.8,1.3,1.2,2.7,1.2,4.2c0,1.5-0.4,3-1.2,4.2C70,14,68.9,15,67.6,15.8
		c-1.3,0.8-2.8,1.1-4.4,1.1s-3-0.4-4.4-1.1c-1.3-0.8-2.4-1.8-3.1-3.1c-0.8-1.3-1.2-2.7-1.2-4.2c0-1.5,0.4-2.9,1.2-4.2
		c0.8-1.3,1.8-2.3,3.1-3C60.2,0.4,61.7,0,63.2,0S66.3,0.4,67.6,1.2z M59.8,2.4c-1.1,0.6-1.9,1.5-2.6,2.5c-0.6,1.1-0.9,2.2-0.9,3.5
		s0.3,2.4,0.9,3.5c0.6,1.1,1.5,1.9,2.6,2.6c1.1,0.6,2.2,0.9,3.5,0.9c1.2,0,2.4-0.3,3.5-0.9s1.9-1.5,2.6-2.6c0.6-1.1,0.9-2.2,0.9-3.5
		S69.9,6,69.3,4.9c-0.6-1.1-1.5-1.9-2.6-2.5s-2.2-0.9-3.5-0.9C62,1.5,60.8,1.8,59.8,2.4z"/>
	<path fill="#FFFFFF" d="M84.9,2c-0.9-0.4-1.8-0.5-2.7-0.5c-1.3,0-2.5,0.3-3.5,0.9c-1.1,0.6-1.9,1.5-2.5,2.5s-0.9,2.2-0.9,3.5
		s0.3,2.4,0.9,3.5c0.6,1.1,1.5,1.9,2.5,2.5c1.1,0.6,2.2,0.9,3.5,0.9c0.9,0,1.8-0.2,2.7-0.5c0.9-0.4,1.6-0.9,2.3-1.5l1,1.1
		c-0.8,0.8-1.8,1.4-2.8,1.8c-1.1,0.4-2.1,0.7-3.3,0.7c-1.6,0-3-0.4-4.3-1.1c-1.3-0.8-2.4-1.8-3.1-3.1c-0.8-1.3-1.2-2.7-1.2-4.2
		c0-1.5,0.4-2.9,1.2-4.2c0.8-1.3,1.8-2.3,3.1-3C79.2,0.4,80.6,0,82.2,0c1.1,0,2.2,0.2,3.3,0.6c1,0.4,2,1,2.8,1.7l-1,1.1
		C86.6,2.9,85.8,2.4,84.9,2z"/>
	<path fill="#FFFFFF" d="M91.8,0.2h11.1v1.5h-9.5v5.9h8.5V9h-8.5v6.2h9.8v1.5H91.8V0.2z"/>
	<path fill="#FFFFFF" d="M125.8,0.2h1.6v16.6h-1.7l-10.3-14v14h-1.6V0.2h1.7l10.3,14.1V0.2z"/>
	<path fill="#FFFFFF" d="M135.3,14c0.9,0.9,2.2,1.4,3.9,1.4s2.9-0.5,3.8-1.4c0.9-0.9,1.4-2.3,1.4-4V0.1h1.6V10
		c0,2.2-0.6,3.8-1.8,5.1c-1.2,1.2-2.9,1.8-5,1.8c-2.2,0-3.8-0.6-5.1-1.8c-1.2-1.2-1.8-2.9-1.8-5.1V0.1h1.6V10
		C133.9,11.7,134.4,13.1,135.3,14z"/>
	<path fill="#FFFFFF" d="M150.9,0.2H162v1.5h-9.5v5.9h8.5V9h-8.5v6.2h9.8v1.5h-11.4V0.2z"/>
	<path fill="#FFFFFF" d="M173.3,1.9c-0.8-0.2-1.6-0.3-2.3-0.3c-1.1,0-2.1,0.2-2.7,0.7c-0.7,0.5-1,1.1-1,1.8c0,0.7,0.2,1.2,0.6,1.7
		c0.4,0.4,0.8,0.8,1.4,1s1.3,0.5,2.3,0.8c1.1,0.3,2,0.7,2.7,1s1.3,0.8,1.8,1.4s0.7,1.4,0.7,2.4c0,0.9-0.2,1.7-0.7,2.3
		c-0.5,0.7-1.2,1.2-2.1,1.6c-0.9,0.4-1.9,0.6-3.1,0.6c-1.2,0-2.3-0.2-3.4-0.7s-2-1.1-2.8-1.8l0.8-1.4c0.7,0.7,1.6,1.3,2.6,1.7
		c1,0.4,1.9,0.6,2.9,0.6c1.3,0,2.3-0.3,3-0.8c0.7-0.5,1.1-1.2,1.1-2.1c0-0.7-0.2-1.3-0.6-1.7c-0.4-0.4-0.8-0.8-1.4-1
		c-0.6-0.2-1.3-0.5-2.3-0.8c-1.1-0.3-2-0.7-2.7-1c-0.7-0.3-1.3-0.8-1.7-1.4s-0.7-1.4-0.7-2.4c0-0.8,0.2-1.6,0.7-2.2
		c0.5-0.6,1.1-1.1,2-1.5c0.9-0.3,1.8-0.5,3-0.5c0.9,0,1.8,0.1,2.7,0.4c0.9,0.3,1.7,0.6,2.4,1.1l-0.7,1.4
		C174.8,2.4,174.1,2.1,173.3,1.9z"/>
	<path fill="#FFFFFF" d="M178.4,0.1H191v1.5h-5.5v15.1h-1.6V1.6h-5.5V0.1z"/>
	<path fill="#FFFFFF" d="M204.8,16.8l-3.6-5.4c-0.5,0-0.9,0-1.2,0h-4.6v5.4h-1.6V0.2h6.2c2.1,0,3.7,0.5,4.8,1.4
		c1.1,1,1.7,2.3,1.7,4.1c0,1.4-0.3,2.5-1,3.4c-0.7,0.9-1.6,1.6-2.8,1.9l4,5.7H204.8z M200,9.9c1.6,0,2.8-0.4,3.7-1.1
		s1.3-1.8,1.3-3.1c0-1.3-0.4-2.3-1.3-3c-0.9-0.7-2.1-1-3.7-1h-4.6v8.3H200z"/>
	<path fill="#FFFFFF" d="M223.4,16.8l-2-4.4h-9.2l-1.9,4.4h-1.8L216,0.2h1.7l7.5,16.6H223.4z M212.9,10.9h7.9l-4-9L212.9,10.9z"/>
	<path fill="#FFFFFF" d="M234.7,1.9c-0.8-0.2-1.6-0.3-2.3-0.3c-1.1,0-2.1,0.2-2.7,0.7c-0.7,0.5-1,1.1-1,1.8c0,0.7,0.2,1.2,0.6,1.7
		c0.4,0.4,0.8,0.8,1.4,1s1.3,0.5,2.3,0.8c1.1,0.3,2,0.7,2.7,1s1.3,0.8,1.8,1.4s0.7,1.4,0.7,2.4c0,0.9-0.2,1.7-0.7,2.3
		c-0.5,0.7-1.2,1.2-2.1,1.6c-0.9,0.4-1.9,0.6-3.1,0.6c-1.2,0-2.3-0.2-3.4-0.7s-2-1.1-2.8-1.8l0.8-1.4c0.7,0.7,1.6,1.3,2.6,1.7
		c1,0.4,1.9,0.6,2.9,0.6c1.3,0,2.3-0.3,3-0.8c0.7-0.5,1.1-1.2,1.1-2.1c0-0.7-0.2-1.3-0.6-1.7c-0.4-0.4-0.8-0.8-1.4-1
		c-0.6-0.2-1.3-0.5-2.3-0.8c-1.1-0.3-2-0.7-2.7-1c-0.7-0.3-1.3-0.8-1.7-1.4s-0.7-1.4-0.7-2.4c0-0.8,0.2-1.6,0.7-2.2
		c0.5-0.6,1.1-1.1,2-1.5c0.9-0.3,1.8-0.5,3-0.5c0.9,0,1.8,0.1,2.7,0.4c0.9,0.3,1.7,0.6,2.4,1.1l-0.7,1.4
		C236.2,2.4,235.5,2.1,234.7,1.9z"/>
	<path fill="#FFFFFF" d="M18.2,27.7c1.7,1.5,2.6,3.7,2.6,6.4c0,2.9-0.9,5.2-2.6,6.8c-1.7,1.6-4.2,2.4-7.3,2.4H6.5v6.8H0V25.5h10.9
		C14,25.5,16.5,26.2,18.2,27.7z M13.6,37.2c0.7-0.7,1.1-1.6,1.1-2.9c0-1.2-0.4-2.1-1.1-2.8s-1.7-1-3.1-1H6.5v7.6h4.1
		C11.9,38.2,12.9,37.9,13.6,37.2z"/>
	<path fill="#FFFFFF" d="M38.9,50.2l-3.6-6.8h-0.1h-4.7v6.8H24V25.5h11.1c3.3,0,5.8,0.8,7.6,2.3s2.7,3.7,2.7,6.4
		c0,1.9-0.4,3.5-1.1,4.8c-0.8,1.4-1.8,2.4-3.3,3.2l5.2,8.1H38.9z M30.5,38.2h4.7c1.3,0,2.3-0.3,3.1-1c0.7-0.7,1.1-1.6,1.1-2.9
		c0-1.2-0.4-2.1-1.1-2.8c-0.7-0.6-1.7-1-3.1-1h-4.7V38.2z"/>
	<path fill="#FFFFFF" d="M68.2,26.7c2,1.1,3.6,2.6,4.8,4.6c1.2,1.9,1.7,4.1,1.7,6.5c0,2.4-0.6,4.6-1.7,6.6s-2.8,3.5-4.8,4.6
		c-2,1.1-4.3,1.7-6.8,1.7s-4.8-0.6-6.8-1.7c-2-1.1-3.6-2.7-4.8-4.6S48,40.2,48,37.8c0-2.4,0.6-4.6,1.7-6.5c1.2-1.9,2.8-3.4,4.8-4.6
		c2-1.1,4.3-1.7,6.8-1.7S66.2,25.6,68.2,26.7z M58,31.5c-1,0.6-1.9,1.5-2.5,2.6s-0.9,2.3-0.9,3.7c0,1.4,0.3,2.6,0.9,3.7
		s1.5,2,2.5,2.6c1,0.6,2.2,1,3.4,1c1.2,0,2.3-0.3,3.4-1c1-0.6,1.8-1.5,2.4-2.6c0.6-1.1,0.9-2.4,0.9-3.7c0-1.3-0.3-2.6-0.9-3.7
		c-0.6-1.1-1.4-2-2.4-2.6c-1-0.6-2.1-1-3.4-1C60.2,30.5,59.1,30.9,58,31.5z"/>
	<path fill="#FFFFFF" d="M96.2,27.7c1.7,1.5,2.6,3.7,2.6,6.4c0,2.9-0.9,5.2-2.6,6.8c-1.7,1.6-4.2,2.4-7.3,2.4h-4.4v6.8H78V25.5h10.9
		C92,25.5,94.4,26.2,96.2,27.7z M91.6,37.2c0.7-0.7,1.1-1.6,1.1-2.9c0-1.2-0.4-2.1-1.1-2.8s-1.7-1-3.1-1h-4.1v7.6h4.1
		C89.8,38.2,90.8,37.9,91.6,37.2z"/>
	<path fill="#FFFFFF" d="M109.4,43.7c0.9,0.9,2.1,1.4,3.5,1.4c1.4,0,2.5-0.5,3.4-1.4c0.9-0.9,1.3-2.2,1.3-3.8V25.5h6.5V40
		c0,2.1-0.5,4-1.4,5.6c-0.9,1.6-2.2,2.9-3.9,3.7c-1.7,0.9-3.7,1.3-5.9,1.3c-2.3,0-4.2-0.4-5.9-1.3c-1.7-0.9-3-2.1-4-3.7
		c-0.9-1.6-1.4-3.5-1.4-5.6V25.5h6.5V40C108,41.6,108.5,42.8,109.4,43.7z"/>
	<path fill="#FFFFFF" d="M128.4,25.5h19.5v5.2h-13.1v4.6h11.8v5.1l-11.8,0v4.7h13.4v5.2h-19.9V25.5z"/>
	<path fill="#FFFFFF" d="M165.1,31c-1.5-0.5-2.7-0.7-3.8-0.7c-0.8,0-1.4,0.1-1.9,0.4s-0.7,0.7-0.7,1.3c0,0.5,0.2,1,0.6,1.4
		c0.4,0.4,0.9,0.7,1.5,0.9c0.6,0.2,1.5,0.5,2.6,0.9c1.7,0.5,3.1,1,4.3,1.5s2.1,1.3,2.9,2.3c0.8,1,1.2,2.4,1.2,4
		c0,1.6-0.4,3.1-1.3,4.2c-0.9,1.2-2.1,2-3.6,2.6c-1.5,0.6-3.2,0.9-5.1,0.9c-2,0-4.1-0.4-6.1-1.1s-3.8-1.7-5.3-2.9l2.5-5
		c1.2,1.1,2.7,2,4.4,2.7c1.7,0.7,3.2,1.1,4.5,1.1c1,0,1.7-0.2,2.3-0.5c0.6-0.4,0.8-0.9,0.8-1.6c0-0.6-0.2-1-0.6-1.4
		c-0.4-0.4-0.9-0.7-1.6-0.9c-0.6-0.2-1.5-0.5-2.6-0.8c-1.7-0.5-3.1-0.9-4.2-1.4c-1.1-0.5-2.1-1.2-2.8-2.2c-0.8-1-1.2-2.3-1.2-3.9
		c0-1.5,0.4-2.9,1.2-4c0.8-1.2,2-2,3.5-2.7c1.5-0.6,3.2-0.9,5.2-0.9c1.8,0,3.6,0.3,5.3,0.8c1.7,0.5,3.3,1.2,4.6,2l-2.4,5.2
		C168,32.1,166.6,31.5,165.1,31z"/>
	<path fill="#FFFFFF" d="M172.9,25.5h21.2v5.3h-7.4v19.4h-6.5V30.8h-7.3V25.5z"/>
	<path fill="#FFFFFF" d="M212.3,50.2l-1.7-4.4h-10.7l-1.7,4.4h-6.6l10.6-24.7h6.6l10.4,24.7H212.3z M201.8,40.9h6.8l-3.4-8.8
		L201.8,40.9z"/>
	<path fill="#FFFFFF" d="M234.1,31c-1.5-0.5-2.7-0.7-3.8-0.7c-0.8,0-1.4,0.1-1.9,0.4s-0.7,0.7-0.7,1.3c0,0.5,0.2,1,0.6,1.4
		c0.4,0.4,0.9,0.7,1.5,0.9c0.6,0.2,1.5,0.5,2.6,0.9c1.7,0.5,3.1,1,4.3,1.5s2.1,1.3,2.9,2.3c0.8,1,1.2,2.4,1.2,4
		c0,1.6-0.4,3.1-1.3,4.2c-0.9,1.2-2.1,2-3.6,2.6c-1.5,0.6-3.2,0.9-5.1,0.9c-2,0-4.1-0.4-6.1-1.1s-3.8-1.7-5.3-2.9l2.5-5
		c1.2,1.1,2.7,2,4.4,2.7c1.7,0.7,3.2,1.1,4.5,1.1c1,0,1.7-0.2,2.3-0.5c0.6-0.4,0.8-0.9,0.8-1.6c0-0.6-0.2-1-0.6-1.4
		c-0.4-0.4-0.9-0.7-1.6-0.9c-0.6-0.2-1.5-0.5-2.6-0.8c-1.7-0.5-3.1-0.9-4.2-1.4c-1.1-0.5-2.1-1.2-2.8-2.2c-0.8-1-1.2-2.3-1.2-3.9
		c0-1.5,0.4-2.9,1.2-4c0.8-1.2,2-2,3.5-2.7c1.5-0.6,3.2-0.9,5.2-0.9c1.8,0,3.6,0.3,5.3,0.8c1.7,0.5,3.3,1.2,4.6,2l-2.4,5.2
		C237,32.1,235.6,31.5,234.1,31z"/>
	<path fill-rule="evenodd" clip-rule="evenodd" fill="#FFFFFF" d="M126.4,131.7c-1.1-0.4-1.7-1.2-2.1-2.3c-1.1-2.6-2.2-5.2-3.3-7.9
		c-0.1-0.2-0.2-0.3-0.2-0.5c-0.2,0.2-0.3,0.3-0.4,0.4c-1.4,1.4-2.8,2.9-4.2,4.3c-0.7,0.7-1.5,1-2.4,0.6c-0.9-0.4-1.3-1.2-1.3-2.2
		c0-9.8,0-19.7,0-29.5c0-1,0.3-1.8,1.3-2.2c0.9-0.4,1.7-0.1,2.4,0.6c7.1,6.8,14.1,13.7,21.2,20.5c0.8,0.8,1,1.6,0.7,2.5
		c-0.4,0.9-1.2,1.3-2.2,1.3c-1.9,0-3.9,0-5.8,0c-0.2,0-0.4,0-0.7,0c0.1,0.2,0.1,0.4,0.2,0.6c1.2,2.7,2.3,5.5,3.5,8.2
		c0.8,1.8,0.2,3.1-1.5,3.9c-1.3,0.6-2.6,1.1-3.9,1.7C127.1,131.7,126.7,131.7,126.4,131.7z M132.1,113.8c0,0,0-0.1,0.1-0.1
		c-5.4-5.2-10.8-10.4-16.2-15.7c0,7.6,0,15.1,0,22.4c1-0.9,2.2-1.9,3.1-3c1.5-1.7,3.6-1.1,4.3,0.8c0.7,1.9,1.6,3.7,2.3,5.6
		c0.6,1.3,1.1,2.7,1.7,4c0.7-0.3,1.3-0.6,1.9-0.8c-1.4-3.3-2.8-6.6-4.2-9.8c-0.2-0.4-0.3-0.9-0.2-1.4c0.1-1.2,1-1.9,2.3-2
		C128.9,113.8,130.5,113.8,132.1,113.8z"/>
	<path fill-rule="evenodd" clip-rule="evenodd" fill="#FFFFFF" d="M114.9,74.4c1.1,0.2,2.3,0.4,3.4,0.7c8,2.2,13.4,9.9,12.8,18.2
		c-0.2,2.7-1,5.3-2.4,7.7c-0.1,0.1-0.2,0.2-0.3,0.4c-0.6-0.7-1.2-1.4-1.9-2.1c0.9-1.6,1.6-3.5,1.8-5.6c0.5-5.4-1.3-9.9-5.5-13.3
		c-8.8-7.1-21.7-2.3-23.9,8.8c-1.5,7.3,2.9,14.7,10.1,17c0.4,0.1,0.6,0.3,0.5,0.7c0,0.7,0,1.4,0,2.3c-1.1-0.4-2.2-0.7-3.2-1.2
		c-6.5-2.9-10.7-9.6-10.4-16.7c0.4-8.8,7.1-15.9,15.8-16.8c0.1,0,0.2-0.1,0.4-0.1C113.2,74.4,114,74.4,114.9,74.4z"/>
	<path fill-rule="evenodd" clip-rule="evenodd" fill="#FFFFFF" d="M109.7,100.5c-3.5-1.3-6.9-6.1-5-11.6c1.8-5.2,7.7-7.7,12.7-5.6
		c5.3,2.3,6.8,8.2,5,12.1c-0.7-0.6-1.3-1.3-2-1.9c-0.1-0.2-0.1-0.5-0.1-0.8c0.4-3.5-1.9-6.7-5.3-7.4c-3-0.6-6.1,0.9-7.5,3.6
		c-1.4,2.8-0.7,6.1,1.7,8.1c0.4,0.3,0.5,0.6,0.5,1C109.6,98.9,109.7,99.7,109.7,100.5z"/>
</g>
</svg>
