<?xml version="1.0" encoding="utf-8"?>
<!-- Generator: Adobe Illustrator 22.0.1, SVG Export Plug-In . SVG Version: 6.00 Build 0)  -->
<svg version="1.1" id="Capa_1" xmlns="http://www.w3.org/2000/svg" xmlns:xlink="http://www.w3.org/1999/xlink" x="0px" y="0px"
	 viewBox="0 0 209 71.5" enable-background="new 0 0 209 71.5" xml:space="preserve">
<g>
	<path fill="#1A1A1A" d="M0,41.6h5.4l4,11.1l4-11.1h5.3l-7.1,17.7H7.1L0,41.6z"/>
	<path fill="#1A1A1A" d="M22.2,41.5h4.7l7.5,17.7h-5.2L27.9,56h-6.8l-1.3,3.1h-5.1L22.2,41.5z M26.5,52.3l-2-5l-2,5H26.5z"/>
	<path fill="#1A1A1A" d="M35.9,41.6h8.3c1.4,0,2.5,0.2,3.4,0.5c0.9,0.3,1.7,0.8,2.3,1.4c1,1,1.6,2.4,1.6,4.1v0c0,1.4-0.3,2.5-1,3.4
		c-0.7,0.9-1.5,1.6-2.6,2l4.2,6.1h-5.6l-3.5-5.3h-0.1h-2.1v5.3h-4.9V41.6z M44,50c0.8,0,1.5-0.2,1.9-0.6c0.5-0.4,0.7-0.9,0.7-1.5v0
		c0-0.7-0.2-1.2-0.7-1.6c-0.5-0.3-1.1-0.5-1.9-0.5h-3.2V50H44z"/>
	<path fill="#1A1A1A" d="M62.1,59.5c-1.4,0-2.6-0.2-3.8-0.7c-1.2-0.4-2.2-1.1-3-1.9c-0.9-0.8-1.5-1.8-2-2.9
		c-0.5-1.1-0.7-2.3-0.7-3.7v-0.1c0-1.3,0.2-2.5,0.7-3.6c0.5-1.1,1.1-2.1,2-2.9c0.8-0.8,1.8-1.5,3-1.9c1.2-0.5,2.4-0.7,3.8-0.7
		c1.6,0,2.9,0.2,4,0.7c1.1,0.5,2.2,1.1,3.1,1.9l-2.9,3.4c-0.6-0.5-1.3-0.9-1.9-1.2c-0.7-0.3-1.4-0.4-2.3-0.4c-0.6,0-1.2,0.1-1.8,0.4
		c-0.5,0.3-1,0.6-1.4,1c-0.4,0.4-0.7,0.9-1,1.5c-0.2,0.6-0.3,1.2-0.3,1.9v0c0,0.7,0.1,1.4,0.4,2c0.2,0.6,0.6,1.1,1,1.5
		c0.4,0.4,0.9,0.8,1.5,1c0.6,0.2,1.2,0.4,1.9,0.4c1.1,0,2.1-0.2,2.8-0.7v-2.1h-3.5v-3.6h8.1v7.9c-0.9,0.8-2,1.4-3.3,1.9
		C65.2,59.3,63.7,59.5,62.1,59.5z"/>
	<path fill="#1A1A1A" d="M77.8,41.5h4.7L90,59.2h-5.2L83.5,56h-6.8l-1.3,3.1h-5.1L77.8,41.5z M82.1,52.3l-2-5l-2,5H82.1z"/>
	<path fill="#1A1A1A" d="M97.9,59.5c-1.6,0-3.1-0.2-4.5-0.7c-1.4-0.5-2.7-1.2-3.7-2.2l2.7-3.2c1.8,1.4,3.6,2.1,5.7,2.1
		c0.7,0,1.1-0.1,1.5-0.3c0.3-0.2,0.5-0.5,0.5-0.9v0c0-0.2,0-0.3-0.1-0.5c-0.1-0.1-0.2-0.3-0.5-0.4c-0.2-0.1-0.5-0.3-0.9-0.4
		c-0.4-0.1-0.9-0.3-1.5-0.4c-0.9-0.2-1.8-0.5-2.6-0.7c-0.8-0.3-1.5-0.6-2.1-1c-0.6-0.4-1.1-0.9-1.4-1.5c-0.3-0.6-0.5-1.4-0.5-2.3
		v-0.1c0-0.8,0.2-1.6,0.5-2.3c0.3-0.7,0.8-1.3,1.4-1.8c0.6-0.5,1.3-0.9,2.1-1.2c0.8-0.3,1.8-0.4,2.8-0.4c1.5,0,2.8,0.2,4,0.6
		c1.2,0.4,2.2,1,3.2,1.8l-2.4,3.4c-0.8-0.6-1.6-1-2.5-1.3c-0.8-0.3-1.7-0.4-2.4-0.4c-0.6,0-1,0.1-1.3,0.3c-0.3,0.2-0.4,0.5-0.4,0.8
		v0.1c0,0.2,0,0.4,0.1,0.5c0.1,0.2,0.3,0.3,0.5,0.4c0.2,0.1,0.5,0.3,0.9,0.4c0.4,0.1,0.9,0.3,1.5,0.4c1,0.2,1.9,0.5,2.7,0.8
		c0.8,0.3,1.5,0.6,2.1,1.1c0.6,0.4,1,0.9,1.3,1.5c0.3,0.6,0.5,1.3,0.5,2.1v0.1c0,0.9-0.2,1.7-0.5,2.4c-0.3,0.7-0.8,1.3-1.4,1.8
		c-0.6,0.5-1.4,0.9-2.2,1.1C99.9,59.3,98.9,59.5,97.9,59.5z"/>
	<path fill="#1A1A1A" d="M112.8,41.6h4.9v13.3h8.5v4.3h-13.4V41.6z"/>
	<path fill="#1A1A1A" d="M127.6,41.6h4.9v13.3h8.5v4.3h-13.4V41.6z"/>
	<path fill="#1A1A1A" d="M142.3,41.6h14.1v4.1h-9.3v2.7h8.4v3.8h-8.4V55h9.4v4.1h-14.2V41.6z"/>
	<path fill="#1A1A1A" d="M158.3,41.6h8.3c1.4,0,2.5,0.2,3.4,0.5c0.9,0.3,1.7,0.8,2.3,1.4c1,1,1.6,2.4,1.6,4.1v0c0,1.4-0.3,2.5-1,3.4
		c-0.7,0.9-1.5,1.6-2.6,2l4.2,6.1h-5.6l-3.5-5.3h0h-2.1v5.3h-4.9V41.6z M166.4,50c0.8,0,1.5-0.2,1.9-0.6c0.5-0.4,0.7-0.9,0.7-1.5v0
		c0-0.7-0.2-1.2-0.7-1.6c-0.5-0.3-1.1-0.5-1.9-0.5h-3.2V50H166.4z"/>
	<path fill="#1A1A1A" d="M181.7,41.5h4.7l7.5,17.7h-5.2l-1.3-3.1h-6.8l-1.3,3.1h-5.1L181.7,41.5z M185.9,52.3l-2-5l-2,5H185.9z"/>
	<path fill="#1A1A1A" d="M201.7,59.5c-1.6,0-3.1-0.2-4.5-0.7c-1.4-0.5-2.7-1.2-3.7-2.2l2.7-3.2c1.8,1.4,3.6,2.1,5.7,2.1
		c0.7,0,1.1-0.1,1.5-0.3c0.3-0.2,0.5-0.5,0.5-0.9v0c0-0.2,0-0.3-0.1-0.5c-0.1-0.1-0.2-0.3-0.5-0.4c-0.2-0.1-0.5-0.3-0.9-0.4
		c-0.4-0.1-0.9-0.3-1.5-0.4c-0.9-0.2-1.8-0.5-2.6-0.7c-0.8-0.3-1.5-0.6-2.1-1c-0.6-0.4-1.1-0.9-1.4-1.5c-0.3-0.6-0.5-1.4-0.5-2.3
		v-0.1c0-0.8,0.2-1.6,0.5-2.3c0.3-0.7,0.8-1.3,1.4-1.8c0.6-0.5,1.3-0.9,2.1-1.2c0.8-0.3,1.8-0.4,2.8-0.4c1.5,0,2.8,0.2,4,0.6
		c1.2,0.4,2.2,1,3.2,1.8l-2.4,3.4c-0.8-0.6-1.6-1-2.5-1.3c-0.8-0.3-1.7-0.4-2.4-0.4c-0.6,0-1,0.1-1.3,0.3c-0.3,0.2-0.4,0.5-0.4,0.8
		v0.1c0,0.2,0,0.4,0.1,0.5c0.1,0.2,0.2,0.3,0.5,0.4c0.2,0.1,0.5,0.3,0.9,0.4c0.4,0.1,0.9,0.3,1.5,0.4c1,0.2,1.9,0.5,2.7,0.8
		c0.8,0.3,1.5,0.6,2.1,1.1c0.6,0.4,1,0.9,1.3,1.5c0.3,0.6,0.5,1.3,0.5,2.1v0.1c0,0.9-0.2,1.7-0.5,2.4c-0.3,0.7-0.8,1.3-1.4,1.8
		c-0.6,0.5-1.4,0.9-2.2,1.1C203.8,59.3,202.8,59.5,201.7,59.5z"/>
	<path fill="#1A1A1A" d="M4.2,29H0.3v-8.1h5.3l0.9-5.6H1.9V7.2h6L9,0.7h7.2l-1.1,6.5h6.4l1.1-6.5h7.3l-1.1,6.5h3.9v8.1h-5.3l-1,5.6
		H31V29h-6l-1.2,6.8h-7.3l1.2-6.8h-6.3l-1.1,6.8H3L4.2,29z M19.3,21.1l1-6h-6.7l-1.1,6H19.3z"/>
	<path fill="#1A1A1A" d="M35.8,0.7h10.3l8.4,13.6l8.4-13.6H73v35h-9.7V15.6l-8.9,13.7h-0.2l-8.9-13.6v20h-9.6V0.7z"/>
	<path fill="#1A1A1A" d="M77.8,0.7H106V9H87.4v5.3h16.8v7.7H87.4v5.6h18.8v8.3H77.8V0.7z"/>
	<path fill="#1A1A1A" d="M119.2,36.3c-1.5,0-2.9-0.1-4.2-0.4c-1.2-0.3-2.4-0.7-3.3-1.3c-1-0.5-1.9-1.2-2.7-1.9
		c-0.8-0.7-1.5-1.5-2.1-2.3l6.3-5.9c0.9,1,1.7,1.8,2.6,2.4c0.9,0.6,1.8,0.9,2.9,0.9c1.2,0,2.2-0.4,2.9-1.2c0.7-0.8,1.1-2,1.1-3.7
		V0.7h9.7v22.2c0,2.2-0.3,4.1-0.9,5.7c-0.6,1.6-1.4,3-2.6,4.2c-1.2,1.2-2.6,2.1-4.2,2.7C123,36,121.2,36.3,119.2,36.3z"/>
	<path fill="#1A1A1A" d="M154.2,36.4c-2.7,0-5.2-0.5-7.5-1.4c-2.3-0.9-4.3-2.2-6-3.9c-1.7-1.6-3-3.5-3.9-5.8c-1-2.2-1.4-4.6-1.4-7.1
		v-0.1c0-2.5,0.5-4.9,1.4-7.1c0.9-2.2,2.3-4.2,4-5.8c1.7-1.6,3.7-2.9,6-3.9c2.3-1,4.8-1.4,7.5-1.4c2.7,0,5.2,0.5,7.5,1.4
		c2.3,1,4.3,2.2,6,3.9c1.7,1.6,3,3.6,3.9,5.8c1,2.2,1.4,4.6,1.4,7.1v0.1c0,2.5-0.5,4.9-1.4,7.1c-0.9,2.2-2.3,4.2-4,5.8
		c-1.7,1.6-3.7,3-6,3.9C159.4,35.9,156.9,36.4,154.2,36.4z M154.3,27.7c1.3,0,2.6-0.2,3.7-0.8c1.1-0.5,2-1.2,2.8-2
		c0.8-0.9,1.4-1.8,1.8-3c0.4-1.1,0.7-2.3,0.7-3.6v-0.1c0-1.3-0.2-2.5-0.7-3.6c-0.4-1.1-1.1-2.1-1.9-3c-0.8-0.9-1.8-1.6-2.9-2.1
		c-1.1-0.5-2.3-0.8-3.7-0.8c-1.3,0-2.6,0.3-3.6,0.7c-1.1,0.5-2,1.2-2.8,2c-0.8,0.9-1.4,1.8-1.8,3c-0.4,1.1-0.6,2.3-0.6,3.6v0.1
		c0,1.3,0.2,2.5,0.7,3.6c0.4,1.1,1,2.1,1.8,3c0.8,0.9,1.7,1.6,2.8,2.1C151.7,27.4,153,27.7,154.3,27.7z"/>
	<path fill="#1A1A1A" d="M176.8,0.7h16.6c2.7,0,5,0.3,6.9,1c1.9,0.7,3.4,1.6,4.5,2.8c2.1,2,3.1,4.7,3.1,8.2v0.1
		c0,2.7-0.6,4.9-1.9,6.7c-1.3,1.8-3.1,3.1-5.3,4.1l8.4,12.2h-11.2l-7.1-10.6h-0.1h-4.2v10.6h-9.7V0.7z M192.9,17.5
		c1.7,0,3-0.4,3.9-1.1c0.9-0.7,1.4-1.8,1.4-3v-0.1c0-1.4-0.5-2.4-1.4-3.1c-0.9-0.7-2.2-1-3.8-1h-6.4v8.4H192.9z"/>
	<rect x="0.4" y="65.9" fill="#FFDD00" width="208.3" height="5.6"/>
</g>
</svg>
